<svg version="1.1" id="Layer_1" xmlns="http://www.w3.org/2000/svg" xmlns:xlink="http://www.w3.org/1999/xlink" x="0px" y="0px"
	 width="100%" viewBox="0 0 1144 1145" enable-background="new 0 0 1144 1145" xml:space="preserve">
<path id="p0" fill="#F06A00" opacity="1.000000" stroke="none" 
	d="
M572.000000,1.000002 
	C573.388916,1.000000 574.777771,1.000000 576.697998,1.337228 
	C640.550903,33.301895 703.876160,64.922188 767.191040,96.562965 
	C779.444702,102.686562 791.658264,108.890289 803.820068,115.435989 
	C803.216431,117.794373 802.225525,119.772217 802.218506,121.753525 
	C802.117981,150.368484 802.168396,178.983932 802.137146,207.599213 
	C802.128967,215.076553 801.965515,222.553726 801.507629,230.010864 
	C726.758545,192.824509 652.367188,155.674332 578.021606,118.432953 
	C575.066650,116.952751 572.771362,117.039009 569.845276,118.503815 
	C419.989166,193.520172 270.101593,268.473602 120.164040,343.326965 
	C116.857475,344.977692 115.907433,346.809448 115.910599,350.411133 
	C116.018097,472.743591 115.996338,595.076233 116.003433,717.408813 
	C116.005089,745.908020 116.043327,774.407227 115.820068,803.152954 
	C113.833138,804.357849 112.120918,805.376343 110.344154,806.265808 
	C76.636208,823.140381 42.910351,839.979248 9.233105,856.914795 
	C7.289363,857.892273 5.727846,859.629700 3.663565,861.070312 
	C2.559124,861.418091 1.779566,861.709045 1.000004,862.000000 
	C1.000000,632.638611 1.000000,403.277252 1.370302,173.463547 
	C38.321293,191.291550 74.915298,209.545395 111.456482,227.904373 
	C114.269913,229.317902 116.524628,229.450302 119.416565,228.002197 
	C256.104889,159.557831 392.838196,91.203377 529.543213,22.792353 
	C543.768311,15.673722 557.851135,8.270948 572.000000,1.000002 
z"/>
<path id="p1" fill="#FF8A30" opacity="1.000000" stroke="none" 
	d="
M3.988459,861.013428 
	C5.727846,859.629700 7.289363,857.892273 9.233105,856.914795 
	C42.910351,839.979248 76.636208,823.140381 110.344154,806.265808 
	C112.120918,805.376343 113.833138,804.357849 116.178940,803.210938 
	C117.095085,803.116272 117.429680,803.166077 117.717224,803.309937 
	C267.761932,878.396423 417.812531,953.471313 567.799133,1028.673706 
	C572.077087,1030.818604 575.331970,1030.949097 579.692810,1028.756958 
	C713.613281,961.437927 847.611938,894.274475 981.589478,827.068970 
	C997.524780,819.075562 1013.408142,810.978577 1029.551025,802.945679 
	C1030.097778,802.897034 1030.412476,802.864014 1031.050049,803.045898 
	C1061.963989,818.547791 1092.555542,833.872437 1123.155396,849.180298 
	C1130.422485,852.815735 1137.717651,856.394958 1145.000000,860.000000 
	C1145.000000,860.000000 1145.000000,860.500000 1144.665161,860.851501 
	C1144.205444,861.313232 1144.097412,861.456909 1143.953491,861.528870 
	C968.888184,949.040283 793.815186,1036.536011 618.763000,1124.073364 
	C604.436279,1131.237671 590.251038,1138.684448 576.000000,1146.000000 
	C574.611084,1146.000000 573.222229,1146.000000 571.294067,1145.674194 
	C493.115692,1106.362549 415.509521,1067.310669 337.828949,1028.407471 
	C241.584106,980.207031 145.269241,932.146545 49.006435,883.981934 
	C33.941261,876.444031 18.991564,868.675415 3.988459,861.013428 
z"/>
<path id="p2" fill="#FFFFFF" opacity="1.000000" stroke="none" 
	d="
M3.663577,861.070312 
	C18.991564,868.675415 33.941261,876.444031 49.006435,883.981934 
	C145.269241,932.146545 241.584106,980.207031 337.828949,1028.407471 
	C415.509521,1067.310669 493.115692,1106.362549 570.877441,1145.674194 
	C381.093384,1146.000000 191.186752,1146.000000 1.000000,1146.000000 
	C1.000000,1051.640015 1.000000,957.279724 1.000004,862.459717 
	C1.779566,861.709045 2.559124,861.418091 3.663577,861.070312 
z"/>
<path id="p3" fill="#FFFFFF" opacity="1.000000" stroke="none" 
	d="
M576.461243,1146.000000 
	C590.251038,1138.684448 604.436279,1131.237671 618.763000,1124.073364 
	C793.815186,1036.536011 968.888184,949.040283 1143.953491,861.528870 
	C1144.097412,861.456909 1144.205444,861.313232 1144.665161,861.101501 
	C1145.000000,955.952942 1145.000000,1050.905884 1145.000000,1146.000000 
	C955.640869,1146.000000 766.281677,1146.000000 576.461243,1146.000000 
z"/>
<path id="p4" fill="#C75600" opacity="1.000000" stroke="none" 
	d="
M1145.000000,859.531372 
	C1137.717651,856.394958 1130.422485,852.815735 1123.155396,849.180298 
	C1092.555542,833.872437 1061.963989,818.547791 1031.062500,802.587708 
	C1030.758667,576.100525 1030.760986,350.254852 1030.779663,124.409187 
	C1030.779907,121.924484 1030.996094,119.439804 1031.474854,116.981590 
	C1058.176025,130.136887 1084.497559,143.298187 1110.859009,156.379272 
	C1122.196777,162.005280 1133.617188,167.464828 1145.000000,173.000000 
	C1145.000000,401.687561 1145.000000,630.375122 1145.000000,859.531372 
z"/>
<path id="p5" fill="#FFFFFF" opacity="1.000000" stroke="none" 
	d="
M571.540283,1.000002 
	C557.851135,8.270948 543.768311,15.673722 529.543213,22.792353 
	C392.838196,91.203377 256.104889,159.557831 119.416565,228.002197 
	C116.524628,229.450302 114.269913,229.317902 111.456482,227.904373 
	C74.915298,209.545395 38.321293,191.291550 1.370302,173.005600 
	C1.000000,115.699051 1.000000,58.398106 1.000000,1.000000 
	C191.026840,1.000000 381.053711,1.000000 571.540283,1.000002 
z"/>
<path id="p6" fill="#FFFFFF" opacity="1.000000" stroke="none" 
	d="
M1145.000000,172.536118 
	C1133.617188,167.464828 1122.196777,162.005280 1110.859009,156.379272 
	C1084.497559,143.298187 1058.176025,130.136887 1031.307861,116.662567 
	C1004.109131,102.991783 977.462708,89.622681 950.762451,76.361977 
	C939.557434,70.797020 928.238403,65.461487 916.896118,59.842529 
	C916.672546,59.831623 916.524231,59.999821 916.275757,60.184563 
	C916.175598,60.201107 916.057373,60.035976 915.698364,60.092434 
	C913.517761,60.953964 911.659790,61.686073 909.880066,62.574936 
	C876.533264,79.229698 843.199097,95.909653 809.847900,112.555473 
	C807.924866,113.515274 805.879028,114.228867 803.890320,115.057053 
	C791.658264,108.890289 779.444702,102.686562 767.191040,96.562965 
	C703.876160,64.922188 640.550903,33.301895 577.114624,1.337228 
	C766.223816,1.000000 955.447571,1.000000 1145.000000,1.000000 
	C1145.000000,58.023659 1145.000000,115.047943 1145.000000,172.536118 
z"/>
<path id="p7" fill="#EAF4F5" opacity="1.000000" stroke="none" 
	d="
M803.820068,115.435982 
	C805.879028,114.228867 807.924866,113.515274 809.847900,112.555473 
	C843.199097,95.909653 876.533264,79.229698 909.880066,62.574936 
	C911.659790,61.686073 913.517761,60.953964 915.768921,60.553303 
	C916.210999,77.789894 916.233398,94.622070 916.234375,111.454247 
	C916.246460,322.941376 916.255493,534.428467 915.958130,746.117188 
	C915.369629,746.494385 915.100525,746.694397 914.805298,746.842102 
	C802.454285,803.053162 690.094666,859.247009 577.784546,915.539795 
	C574.703491,917.084167 572.432678,916.809875 569.484375,915.332397 
	C458.110809,859.518494 346.703339,803.772034 235.238525,748.140564 
	C231.862122,746.455505 230.888687,744.567993 230.891876,740.942627 
	C230.989609,629.965515 230.990646,518.988342 230.890732,408.011230 
	C230.887329,404.220612 231.841873,402.207336 235.434738,400.414246 
	C346.280212,345.095001 457.064575,289.653107 567.797241,234.108353 
	C572.125488,231.937256 575.592529,231.963058 579.892151,234.123047 
	C651.869568,270.282501 723.915955,306.304596 795.949158,342.353088 
	C797.800415,343.279572 799.674927,344.159515 802.056946,345.311981 
	C802.056946,343.146698 802.058838,341.822662 802.056641,340.498596 
	C801.995850,303.676056 801.934631,266.853516 801.873474,230.030975 
	C801.965515,222.553726 802.128967,215.076553 802.137146,207.599213 
	C802.168396,178.983932 802.117981,150.368484 802.218506,121.753525 
	C802.225525,119.772217 803.216431,117.794373 803.820068,115.435982 
M574.697205,802.658630 
	C649.331116,765.332214 723.957397,727.990479 798.628418,690.738403 
	C801.443970,689.333801 802.268982,687.630371 802.265503,684.584167 
	C802.181458,611.264465 802.205872,537.944702 802.159607,464.624939 
	C802.158630,463.097351 801.554016,461.570160 800.853943,459.411255 
	C773.689514,445.724091 746.552002,431.983215 719.354736,418.361664 
	C672.295715,394.792419 625.184082,371.327911 578.153503,347.702148 
	C575.008057,346.122070 572.640869,346.085144 569.439819,347.693817 
	C513.580872,375.765839 457.634521,403.663727 401.738312,431.661591 
	C383.084015,441.005371 364.516632,450.522675 345.234497,460.491699 
	C345.164978,462.152435 345.034851,463.813141 345.034637,465.473877 
	C345.024536,538.127747 345.068451,610.781738 344.915710,683.435303 
	C344.906921,687.613708 346.382507,689.453735 349.928955,691.218567 
	C399.626160,715.948669 449.232544,740.861206 498.890167,765.671082 
	C523.271729,777.852539 547.713440,789.913635 572.468506,802.450317 
	C572.982239,802.543884 573.495911,802.637451 574.697205,802.658630 
z"/>
<path id="p8" fill="#00D4F0" opacity="1.000000" stroke="none" 
	d="
M801.507629,230.010864 
	C801.934631,266.853516 801.995850,303.676056 802.056641,340.498596 
	C802.058838,341.822662 802.056946,343.146698 802.056946,345.311981 
	C799.674927,344.159515 797.800415,343.279572 795.949158,342.353088 
	C723.915955,306.304596 651.869568,270.282501 579.892151,234.123047 
	C575.592529,231.963058 572.125488,231.937256 567.797241,234.108353 
	C457.064575,289.653107 346.280212,345.095001 235.434738,400.414246 
	C231.841873,402.207336 230.887329,404.220612 230.890732,408.011230 
	C230.990646,518.988342 230.989609,629.965515 230.891876,740.942627 
	C230.888687,744.567993 231.862122,746.455505 235.238525,748.140564 
	C346.703339,803.772034 458.110809,859.518494 569.484375,915.332397 
	C572.432678,916.809875 574.703491,917.084167 577.784546,915.539795 
	C690.094666,859.247009 802.454285,803.053162 914.805298,746.842102 
	C915.100525,746.694397 915.369629,746.494385 916.288147,746.215454 
	C953.015686,764.142761 989.109192,782.167236 1025.185059,800.226746 
	C1026.646729,800.958374 1027.942505,802.021179 1029.315552,802.929688 
	C1013.408142,810.978577 997.524780,819.075562 981.589478,827.068970 
	C847.611938,894.274475 713.613281,961.437927 579.692810,1028.756958 
	C575.331970,1030.949097 572.077087,1030.818604 567.799133,1028.673706 
	C417.812531,953.471313 267.761932,878.396423 117.717224,803.309937 
	C117.429680,803.166077 117.095085,803.116272 116.423599,802.964478 
	C116.043327,774.407227 116.005089,745.908020 116.003433,717.408813 
	C115.996338,595.076233 116.018097,472.743591 115.910599,350.411133 
	C115.907433,346.809448 116.857475,344.977692 120.164040,343.326965 
	C270.101593,268.473602 419.989166,193.520172 569.845276,118.503815 
	C572.771362,117.039009 575.066650,116.952751 578.021606,118.432953 
	C652.367188,155.674332 726.758545,192.824509 801.507629,230.010864 
z"/>
<path id="p9" fill="#0090A3" opacity="1.000000" stroke="none" 
	d="
M1029.551025,802.945618 
	C1027.942505,802.021179 1026.646729,800.958374 1025.185059,800.226746 
	C989.109192,782.167236 953.015686,764.142761 916.595337,746.013794 
	C916.255493,534.428467 916.246460,322.941376 916.234375,111.454247 
	C916.233398,94.622070 916.210999,77.789894 916.127930,60.496845 
	C916.057373,60.035976 916.175598,60.201107 916.439941,60.210503 
	C916.704346,60.219898 916.971252,60.021618 916.971252,60.021626 
	C928.238403,65.461487 939.557434,70.797020 950.762451,76.361977 
	C977.462708,89.622681 1004.109131,102.991783 1030.944336,116.636093 
	C1030.996094,119.439804 1030.779907,121.924484 1030.779663,124.409187 
	C1030.760986,350.254852 1030.758667,576.100525 1030.742920,802.404419 
	C1030.412476,802.864014 1030.097778,802.897034 1029.551025,802.945618 
z"/>
<path id="p10" fill="#4BB0BE" opacity="1.000000" stroke="none" 
	d="
M916.896118,59.842522 
	C916.971252,60.021618 916.704346,60.219898 916.540161,60.193958 
	C916.524231,59.999821 916.672546,59.831623 916.896118,59.842522 
z"/>
<path id="p11" fill="#00D4F0" opacity="1.000000" stroke="none" 
	d="
M572.127930,802.029236 
	C547.713440,789.913635 523.271729,777.852539 498.890167,765.671082 
	C449.232544,740.861206 399.626160,715.948669 349.928955,691.218567 
	C346.382507,689.453735 344.906921,687.613708 344.915710,683.435303 
	C345.068451,610.781738 345.024536,538.127747 345.034637,465.473877 
	C345.034851,463.813141 345.164978,462.152435 345.835571,460.451050 
	C348.050507,461.273926 349.644714,462.176666 351.281036,462.995270 
	C412.062988,493.402191 472.843262,523.812500 533.638611,554.192627 
	C547.041931,560.890442 560.500671,567.477234 573.934814,574.572876 
	C573.937744,648.015686 573.941406,721.000732 573.935425,793.985779 
	C573.935181,796.648682 573.840759,799.311584 573.512085,801.964355 
	C572.865295,801.979248 572.496643,802.004272 572.127930,802.029236 
z"/>
<path id="p12" fill="#0090A3" opacity="1.000000" stroke="none" 
	d="
M573.933899,574.115173 
	C560.500671,567.477234 547.041931,560.890442 533.638611,554.192627 
	C472.843262,523.812500 412.062988,493.402191 351.281036,462.995270 
	C349.644714,462.176666 348.050507,461.273926 346.173096,460.185547 
	C364.516632,450.522675 383.084015,441.005371 401.738312,431.661591 
	C457.634521,403.663727 513.580872,375.765839 569.439819,347.693817 
	C572.640869,346.085144 575.008057,346.122070 578.153503,347.702148 
	C625.184082,371.327911 672.295715,394.792419 719.354736,418.361664 
	C746.552002,431.983215 773.689514,445.724091 800.832275,460.017731 
	C725.185059,498.454529 649.559448,536.284851 573.933899,574.115173 
z"/>
<path id="p13" fill="#C75600" opacity="1.000000" stroke="none" 
	d="
M573.934814,574.572876 
	C649.559448,536.284851 725.185059,498.454529 801.020813,460.333496 
	C801.554016,461.570160 802.158630,463.097351 802.159607,464.624939 
	C802.205872,537.944702 802.181458,611.264465 802.265503,684.584167 
	C802.268982,687.630371 801.443970,689.333801 798.628418,690.738403 
	C723.957397,727.990479 649.331116,765.332214 574.345093,802.492188 
	C573.993042,802.325745 573.790222,801.974487 573.790222,801.974487 
	C573.840759,799.311584 573.935181,796.648682 573.935425,793.985779 
	C573.941406,721.000732 573.937744,648.015686 573.934814,574.572876 
z"/>
<path id="p14" fill="#15C6D7" opacity="1.000000" stroke="none" 
	d="
M573.512085,801.964355 
	C573.790222,801.974487 573.993042,802.325745 574.001343,802.528442 
	C573.495911,802.637451 572.982239,802.543884 572.298218,802.239746 
	C572.496643,802.004272 572.865295,801.979248 573.512085,801.964355 
z"/>
</svg>
